<svg width="2769" height="391" viewBox="0 0 2769 391" fill="none" xmlns="http://www.w3.org/2000/svg">
<path d="M2495.6 239.383L2495.6 4.36719H2442.96L2442.96 251.081C2442.96 264.073 2446.69 279.793 2455.73 289.364C2464.76 298.935 2471.68 305.315 2488.69 305.315H2549.84V263.31H2514.21C2507.02 263.31 2501.82 258.862 2499.33 254.803C2496.83 250.743 2495.6 246.21 2495.6 239.383Z" fill="black"/>
<rect x="2543.46" y="90.5039" width="47.854" height="146.752" transform="rotate(90 2543.46 90.5039)" fill="black"/>
<path d="M1734.79 0C1649.66 0 1580 69.6496 1580 154.777C1580 239.904 1649.66 309.554 1734.79 309.554C1819.93 309.554 1889.59 240.334 1889.59 154.777C1889.59 69.2197 1820.36 0 1734.79 0ZM1734.79 254.092C1681.91 254.092 1639.34 210.669 1639.34 154.777C1639.34 98.8852 1681.91 55.4617 1734.79 55.4617C1787.68 55.4617 1830.25 98.8852 1830.25 154.777C1830.25 210.669 1787.68 254.092 1734.79 254.092Z" fill="black"/>
<path d="M1984.56 8.62109L1862.87 309.576H1922.64L1948.44 243.796H2086.89L2112.69 309.576H2173.32L2052.49 8.62109H1984.56ZM1967.79 193.923L2017.67 67.9522L2067.11 193.923H1967.79Z" fill="black"/>
<path d="M2687.02 86.0449C2662.08 86.0449 2635.86 97.2232 2623.82 115.71V4.36719H2567.92V305.312H2623.82V189.659C2623.82 156.124 2641.88 134.198 2671.11 134.198C2698.2 134.198 2712.82 154.835 2712.82 183.64V305.312H2768.72V174.612C2768.72 121.3 2736.04 86.0449 2687.02 86.0449Z" fill="black"/>
<path d="M2255.09 309.773C2280.02 309.773 2306.25 298.595 2318.29 280.108L2318.29 305.474L2374.19 305.474L2374.19 90.5062L2318.29 90.5062L2318.29 206.159C2318.29 239.694 2300.23 261.621 2271 261.621C2243.91 261.621 2229.29 240.984 2229.29 212.178L2229.29 90.5062L2173.39 90.5062L2173.39 221.207C2173.39 274.519 2206.07 309.773 2255.09 309.773Z" fill="black"/>
<path d="M154.577 0C69.5595 0 0 69.6066 0 154.681C0 239.756 69.5595 309.363 154.577 309.363C239.594 309.363 309.153 240.186 309.153 154.681C309.153 69.1769 240.023 0 154.577 0ZM154.577 253.935C101.763 253.935 59.2544 210.538 59.2544 154.681C59.2544 98.8242 101.763 55.4275 154.577 55.4275C207.39 55.4275 249.899 98.8242 249.899 154.681C249.899 210.538 207.39 253.935 154.577 253.935ZM465.447 85.9341C437.533 85.9341 410.487 97.1055 396.312 116.011V90.2308H340.493V391H396.312V282.293C410.482 299.91 436.674 309.363 465.442 309.363C525.555 309.363 572.787 262.099 572.787 197.648C572.787 133.198 525.561 85.9341 465.447 85.9341ZM455.996 260.81C424.222 260.81 395.883 235.889 395.883 197.648C395.883 159.408 424.222 134.487 455.996 134.487C487.77 134.487 516.104 159.408 516.104 197.648C516.104 235.889 487.77 260.81 455.996 260.81ZM704.187 85.9341C643.216 85.9341 595.125 133.627 595.125 197.648C595.125 261.669 637.204 309.363 705.905 309.363C762.154 309.363 798.222 275.419 809.385 237.178H754.854C747.984 253.076 728.662 264.247 705.476 264.247C676.707 264.247 654.809 244.053 649.656 215.265H811.962V193.352C811.962 134.916 771.171 85.9341 704.187 85.9341ZM650.086 175.735C656.097 148.666 678.425 131.049 705.476 131.049C734.244 131.049 756.142 149.955 758.719 175.735H650.086ZM960.522 85.9341C935.618 85.9341 909.426 97.1055 897.403 115.581V90.2308H841.584V305.066H897.403V189.485C897.403 155.97 915.437 134.057 944.635 134.057C971.686 134.057 986.285 154.681 986.285 183.469V305.066H1042.1V174.446C1042.1 121.167 1009.47 85.9341 960.522 85.9341ZM1185.07 4.30681L1063.55 305.076H1123.24L1149 239.336H1287.26L1313.02 305.076H1373.56L1252.91 4.30681H1185.07ZM1168.32 189.495L1218.13 63.6013L1267.51 189.495H1168.32ZM1453 4.30681H1396.32V305.076H1453V4.30681Z" fill="black"/>
</svg>
