<svg width="1412" height="1412" viewBox="0 0 1412 1412" fill="none" xmlns="http://www.w3.org/2000/svg">
<style>
.mark { fill: #111111; }
@media (prefers-color-scheme: dark) {
  .mark { fill: #ffffff; }
}
</style>
<g clip-path="url(#clip0_36_7)">
<path class="mark" d="M597.462 0.857699C673.717 -4.5771 755.535 16.0618 820.557 55.7878C839.621 67.4347 853.532 77.8804 870.903 91.7881C915.947 83.6597 962.083 83.5966 1007.15 91.601C1108.64 109.677 1198.75 167.436 1257.54 252.101C1315.95 336.355 1338.56 440.326 1320.41 541.218C1348.4 575.095 1369.47 609.408 1385.5 650.519C1422.8 746.143 1420.65 852.641 1379.53 946.681C1345.7 1023.88 1287.62 1087.95 1214.08 1129.17C1193.85 1140.47 1177.72 1147.33 1156.35 1155.65C1150.8 1167.38 1146.43 1180.08 1140.53 1192.52C1124.33 1226.23 1103.33 1257.42 1078.21 1285.12C1009.53 1360.77 913.675 1406.14 811.622 1411.3C797.103 1412.74 770.195 1411.71 755.535 1410.39C669.671 1402.64 607.216 1373.41 541.228 1320.14C498.371 1327.97 454.491 1328.42 411.479 1321.49C309.519 1305.16 218.308 1248.8 158.127 1164.91C95.5192 1077.93 74.597 975.652 91.7694 870.624C63.5815 837.852 41.1539 800.536 25.4414 760.272C-11.0983 663.999 -8.18036 557.204 33.5617 463.069C77.8418 363.472 155.004 295.015 255.809 256.181C260.004 248.164 265.705 231.947 270.502 221.837C286.044 188.764 306.234 158.081 330.46 130.717C398.638 53.6473 494.725 6.91416 597.462 0.857699ZM803.624 1297.49C879.882 1292.64 946.234 1261.95 997.071 1204.28C1015.09 1183.82 1029.9 1160.75 1041.02 1135.85C1047.58 1121.23 1051.8 1106.22 1056.86 1091.08C1067.19 1060.2 1088.78 1058.15 1115.61 1048.88C1125.47 1045.52 1135.09 1041.52 1144.43 1036.9C1243.91 988.43 1304.38 884.819 1297.64 774.394C1294 716.163 1271.8 660.631 1234.27 615.946C1223.26 602.711 1208.28 591.435 1203.34 574.896C1197.16 554.244 1207.83 529.807 1210.67 506.759C1221.87 416.705 1187.69 326.959 1119.41 267.154C1064.95 219.454 993.758 195.357 921.517 200.173C909.062 200.932 896.689 202.63 884.487 205.252C858.307 210.809 839.711 217.803 816.524 196.759C802.123 183.693 793.783 175.007 777.726 163.451C738.141 135.075 691.432 118.286 642.835 114.967C634.456 114.329 619.975 113.369 611.816 114.357C536.156 118.188 468.827 147.965 417.756 204.614C399.016 225.371 383.578 248.884 371.981 274.328C368.409 282.286 365.23 290.414 362.455 298.682C357.28 314.179 354.556 330.003 342.859 342.026C330.473 354.758 314.132 357.158 297.998 362.604C288.467 365.803 279.144 369.592 270.084 373.948C170.322 421.514 108.992 524.42 114.64 634.77C117.764 693.592 139.719 749.855 177.266 795.249C188.357 808.68 203.749 820.374 208.712 836.975C214.929 857.779 204.623 882.481 201.669 905.586C190.625 994.243 223.634 1082.71 290.065 1142.47C341.827 1188.92 413.829 1216.16 483.523 1212.31C496.702 1211.71 509.821 1210.17 522.783 1207.71C549.917 1202.44 573.428 1193.61 595.85 1215.61C654.397 1273.04 720.807 1298.82 803.624 1297.49Z"/>
<path class="mark" fill-rule="evenodd" clip-rule="evenodd" d="M528.104 673.1C645.003 673.1 739.769 767.837 739.769 884.701C739.769 1001.56 645.003 1096.3 528.104 1096.3C411.204 1096.3 316.439 1001.56 316.439 884.701C316.439 767.837 411.204 673.1 528.104 673.1ZM526.618 785.954C472.886 785.954 429.327 829.499 429.327 883.216C429.327 936.932 472.886 980.478 526.618 980.478C580.351 980.478 623.91 936.932 623.91 883.216C623.91 829.499 580.351 785.954 526.618 785.954Z"/>
<path class="mark" d="M974.454 335.733L1055.33 416.583L688.769 783.031L607.895 702.182L974.454 335.733Z"/>
<path class="mark" d="M820.585 766.758L704.525 767.283L821.11 650.733L820.585 766.758Z"/>
<path class="mark" d="M937.694 649.684L821.11 650.733L938.744 533.135L937.694 649.684Z"/>
<path class="mark" d="M1054.8 532.611L938.744 533.135L1055.33 416.586L1054.8 532.611Z"/>
<path class="mark" d="M1054.8 336.259L1055.33 416.583L974.454 335.733L1054.8 336.259Z"/>
</g>
<defs>
<clipPath id="clip0_36_7">
<rect width="1412" height="1412" fill="white"/>
</clipPath>
</defs>
</svg>
